<?xml version="1.0" encoding="UTF-8"?>
<svg width="1440px" height="1024px" viewBox="0 0 1440 1024" version="1.1" xmlns="http://www.w3.org/2000/svg" xmlns:xlink="http://www.w3.org/1999/xlink">
    <g stroke="none" stroke-width="1" fill="none" fill-rule="evenodd">
        <g transform="translate(0.000000, -10.000000)" fill="#FFFFFF">
            <circle opacity="0.05" cx="500" cy="300" r="20"></circle>
            <circle opacity="0.05" cx="100" cy="100" r="15"></circle>
            <circle opacity="0.05" cx="300" cy="500" r="25"></circle>
            <circle opacity="0.05" cx="800" cy="200" r="15"></circle>
            <circle opacity="0.05" cx="1000" cy="400" r="20"></circle>
            <circle opacity="0.05" cx="1200" cy="200" r="15"></circle>
            <circle opacity="0.05" cx="1400" cy="600" r="25"></circle>
            <circle opacity="0.05" cx="200" cy="700" r="15"></circle>
            <circle opacity="0.05" cx="400" cy="900" r="20"></circle>
            <circle opacity="0.05" cx="700" cy="700" r="15"></circle>
            <circle opacity="0.05" cx="900" cy="900" r="25"></circle>
            <circle opacity="0.05" cx="1200" cy="800" r="15"></circle>
            <circle opacity="0.05" cx="600" cy="200" r="10"></circle>
            <circle opacity="0.05" cx="1100" cy="300" r="10"></circle>
            <circle opacity="0.05" cx="300" cy="300" r="10"></circle>
            <circle opacity="0.05" cx="800" cy="500" r="10"></circle>
            <circle opacity="0.05" cx="500" cy="800" r="10"></circle>
            <circle opacity="0.05" cx="1000" cy="700" r="10"></circle>
            <circle opacity="0.05" cx="1300" cy="500" r="10"></circle>
            <circle opacity="0.05" cx="100" cy="500" r="10"></circle>
        </g>
    </g>
</svg>
